<mxfile host="app.diagrams.net" modified="2022-04-19T10:49:08.802Z" agent="5.0 (Windows NT 10.0; Win64; x64) AppleWebKit/537.36 (KHTML, like Gecko) Chrome/100.0.4896.127 Safari/537.36" etag="0ZKhm3s6XlxI0nBmKllB" version="14.7.2" type="github">
  <diagram id="C5RBs43oDa-KdzZeNtuy" name="Page-1">
    <mxGraphModel dx="739" dy="1155" grid="1" gridSize="10" guides="1" tooltips="1" connect="1" arrows="1" fold="1" page="1" pageScale="1" pageWidth="827" pageHeight="1169" math="0" shadow="0">
      <root>
        <mxCell id="WIyWlLk6GJQsqaUBKTNV-0" />
        <mxCell id="WIyWlLk6GJQsqaUBKTNV-1" parent="WIyWlLk6GJQsqaUBKTNV-0" />
        <mxCell id="WIyWlLk6GJQsqaUBKTNV-2" value="" style="rounded=0;html=1;jettySize=auto;orthogonalLoop=1;fontSize=11;endArrow=block;endFill=0;endSize=8;strokeWidth=1;shadow=0;labelBackgroundColor=none;edgeStyle=orthogonalEdgeStyle;" parent="WIyWlLk6GJQsqaUBKTNV-1" source="WIyWlLk6GJQsqaUBKTNV-3" edge="1">
          <mxGeometry relative="1" as="geometry">
            <mxPoint x="210" y="210" as="targetPoint" />
          </mxGeometry>
        </mxCell>
        <mxCell id="WIyWlLk6GJQsqaUBKTNV-3" value="입력" style="rounded=1;whiteSpace=wrap;html=1;fontSize=12;glass=0;strokeWidth=1;shadow=0;" parent="WIyWlLk6GJQsqaUBKTNV-1" vertex="1">
          <mxGeometry x="150" y="120" width="120" height="40" as="geometry" />
        </mxCell>
        <mxCell id="t7Nobz_MbfQ18LxUSvCM-0" value="main" style="text;html=1;strokeColor=none;fillColor=none;align=center;verticalAlign=middle;whiteSpace=wrap;rounded=0;" vertex="1" parent="WIyWlLk6GJQsqaUBKTNV-1">
          <mxGeometry x="80" y="130" width="40" height="20" as="geometry" />
        </mxCell>
        <mxCell id="t7Nobz_MbfQ18LxUSvCM-1" value="pooling(int** arr, int** res, int h, int w, int d, int t)" style="text;html=1;strokeColor=none;fillColor=none;align=center;verticalAlign=middle;whiteSpace=wrap;rounded=0;" vertex="1" parent="WIyWlLk6GJQsqaUBKTNV-1">
          <mxGeometry x="500" y="50" width="270" height="20" as="geometry" />
        </mxCell>
        <mxCell id="t7Nobz_MbfQ18LxUSvCM-2" value="h, w, d = 높이, 가로, 스트라이드 크기&lt;br&gt;numbers = 입력받은 2차원 배열&lt;br&gt;" style="rounded=0;whiteSpace=wrap;html=1;" vertex="1" parent="WIyWlLk6GJQsqaUBKTNV-1">
          <mxGeometry x="150" y="210" width="120" height="70" as="geometry" />
        </mxCell>
        <mxCell id="t7Nobz_MbfQ18LxUSvCM-4" value="" style="swimlane;startSize=0;" vertex="1" parent="WIyWlLk6GJQsqaUBKTNV-1">
          <mxGeometry x="50" y="100" width="390" height="690" as="geometry" />
        </mxCell>
        <mxCell id="t7Nobz_MbfQ18LxUSvCM-10" value="start = clock()" style="rounded=0;whiteSpace=wrap;html=1;" vertex="1" parent="t7Nobz_MbfQ18LxUSvCM-4">
          <mxGeometry x="100" y="240" width="120" height="60" as="geometry" />
        </mxCell>
        <mxCell id="t7Nobz_MbfQ18LxUSvCM-11" value="finish = clock()" style="rounded=0;whiteSpace=wrap;html=1;" vertex="1" parent="t7Nobz_MbfQ18LxUSvCM-4">
          <mxGeometry x="100" y="480" width="120" height="60" as="geometry" />
        </mxCell>
        <mxCell id="t7Nobz_MbfQ18LxUSvCM-12" value="pooling(numbers, result, h, w, d, type)" style="rounded=0;whiteSpace=wrap;html=1;" vertex="1" parent="t7Nobz_MbfQ18LxUSvCM-4">
          <mxGeometry x="50" y="360" width="220" height="60" as="geometry" />
        </mxCell>
        <mxCell id="t7Nobz_MbfQ18LxUSvCM-13" value="" style="endArrow=classic;html=1;exitX=0.5;exitY=1;exitDx=0;exitDy=0;entryX=0.5;entryY=0;entryDx=0;entryDy=0;" edge="1" parent="t7Nobz_MbfQ18LxUSvCM-4" source="t7Nobz_MbfQ18LxUSvCM-10" target="t7Nobz_MbfQ18LxUSvCM-12">
          <mxGeometry width="50" height="50" relative="1" as="geometry">
            <mxPoint x="260" y="240" as="sourcePoint" />
            <mxPoint x="310" y="190" as="targetPoint" />
          </mxGeometry>
        </mxCell>
        <mxCell id="t7Nobz_MbfQ18LxUSvCM-14" value="" style="endArrow=classic;html=1;exitX=0.5;exitY=1;exitDx=0;exitDy=0;entryX=0.5;entryY=0;entryDx=0;entryDy=0;" edge="1" parent="t7Nobz_MbfQ18LxUSvCM-4" source="t7Nobz_MbfQ18LxUSvCM-12" target="t7Nobz_MbfQ18LxUSvCM-11">
          <mxGeometry width="50" height="50" relative="1" as="geometry">
            <mxPoint x="260" y="460" as="sourcePoint" />
            <mxPoint x="310" y="410" as="targetPoint" />
          </mxGeometry>
        </mxCell>
        <mxCell id="WIyWlLk6GJQsqaUBKTNV-11" value="소모시간(finish-start)과&lt;br&gt;res 배열 출력" style="rounded=1;whiteSpace=wrap;html=1;fontSize=12;glass=0;strokeWidth=1;shadow=0;" parent="t7Nobz_MbfQ18LxUSvCM-4" vertex="1">
          <mxGeometry x="95" y="610" width="130" height="40" as="geometry" />
        </mxCell>
        <mxCell id="t7Nobz_MbfQ18LxUSvCM-15" value="" style="endArrow=classic;html=1;exitX=0.5;exitY=1;exitDx=0;exitDy=0;entryX=0.5;entryY=0;entryDx=0;entryDy=0;" edge="1" parent="t7Nobz_MbfQ18LxUSvCM-4" source="t7Nobz_MbfQ18LxUSvCM-11" target="WIyWlLk6GJQsqaUBKTNV-11">
          <mxGeometry width="50" height="50" relative="1" as="geometry">
            <mxPoint x="260" y="240" as="sourcePoint" />
            <mxPoint x="310" y="190" as="targetPoint" />
          </mxGeometry>
        </mxCell>
        <mxCell id="t7Nobz_MbfQ18LxUSvCM-8" style="edgeStyle=orthogonalEdgeStyle;rounded=0;orthogonalLoop=1;jettySize=auto;html=1;exitX=0.5;exitY=1;exitDx=0;exitDy=0;entryX=0.25;entryY=0;entryDx=0;entryDy=0;" edge="1" parent="WIyWlLk6GJQsqaUBKTNV-1" source="t7Nobz_MbfQ18LxUSvCM-6" target="t7Nobz_MbfQ18LxUSvCM-4">
          <mxGeometry relative="1" as="geometry" />
        </mxCell>
        <mxCell id="t7Nobz_MbfQ18LxUSvCM-6" value="argv[1] = type" style="rounded=1;whiteSpace=wrap;html=1;" vertex="1" parent="WIyWlLk6GJQsqaUBKTNV-1">
          <mxGeometry x="90" y="10" width="120" height="60" as="geometry" />
        </mxCell>
        <mxCell id="t7Nobz_MbfQ18LxUSvCM-9" value="" style="endArrow=classic;html=1;exitX=0.5;exitY=1;exitDx=0;exitDy=0;entryX=0.5;entryY=0;entryDx=0;entryDy=0;" edge="1" parent="WIyWlLk6GJQsqaUBKTNV-1" source="t7Nobz_MbfQ18LxUSvCM-2" target="t7Nobz_MbfQ18LxUSvCM-10">
          <mxGeometry width="50" height="50" relative="1" as="geometry">
            <mxPoint x="350" y="380" as="sourcePoint" />
            <mxPoint x="400" y="330" as="targetPoint" />
          </mxGeometry>
        </mxCell>
      </root>
    </mxGraphModel>
  </diagram>
</mxfile>
